<mxfile host="app.diagrams.net" modified="2024-01-07T08:56:30.167Z" agent="Mozilla/5.0 (Windows NT 10.0; Win64; x64) AppleWebKit/537.36 (KHTML, like Gecko) Chrome/120.0.0.0 Safari/537.36" etag="_eHLK9FBE9zejcW7OUe0" version="22.1.17" type="device">
  <diagram id="C5RBs43oDa-KdzZeNtuy" name="Page-1">
    <mxGraphModel dx="913" dy="491" grid="1" gridSize="10" guides="1" tooltips="1" connect="1" arrows="1" fold="1" page="1" pageScale="1" pageWidth="827" pageHeight="1169" math="0" shadow="0">
      <root>
        <mxCell id="WIyWlLk6GJQsqaUBKTNV-0" />
        <mxCell id="WIyWlLk6GJQsqaUBKTNV-1" parent="WIyWlLk6GJQsqaUBKTNV-0" />
        <mxCell id="_vQV7bu7S24XNnnjEnQc-3" style="edgeStyle=orthogonalEdgeStyle;rounded=0;orthogonalLoop=1;jettySize=auto;html=1;entryX=0;entryY=0.5;entryDx=0;entryDy=0;" edge="1" parent="WIyWlLk6GJQsqaUBKTNV-1" source="_vQV7bu7S24XNnnjEnQc-0" target="_vQV7bu7S24XNnnjEnQc-1">
          <mxGeometry relative="1" as="geometry" />
        </mxCell>
        <mxCell id="_vQV7bu7S24XNnnjEnQc-4" style="edgeStyle=orthogonalEdgeStyle;rounded=0;orthogonalLoop=1;jettySize=auto;html=1;entryX=0;entryY=0.5;entryDx=0;entryDy=0;" edge="1" parent="WIyWlLk6GJQsqaUBKTNV-1" source="_vQV7bu7S24XNnnjEnQc-0" target="_vQV7bu7S24XNnnjEnQc-2">
          <mxGeometry relative="1" as="geometry" />
        </mxCell>
        <mxCell id="_vQV7bu7S24XNnnjEnQc-0" value="DATASET OF MULTICLASS 12-LEAD ECG" style="rounded=0;whiteSpace=wrap;html=1;" vertex="1" parent="WIyWlLk6GJQsqaUBKTNV-1">
          <mxGeometry x="40" y="360" width="120" height="60" as="geometry" />
        </mxCell>
        <mxCell id="_vQV7bu7S24XNnnjEnQc-11" style="edgeStyle=orthogonalEdgeStyle;rounded=0;orthogonalLoop=1;jettySize=auto;html=1;entryX=0;entryY=0.5;entryDx=0;entryDy=0;" edge="1" parent="WIyWlLk6GJQsqaUBKTNV-1" source="_vQV7bu7S24XNnnjEnQc-1" target="_vQV7bu7S24XNnnjEnQc-6">
          <mxGeometry relative="1" as="geometry" />
        </mxCell>
        <mxCell id="_vQV7bu7S24XNnnjEnQc-13" style="edgeStyle=orthogonalEdgeStyle;rounded=0;orthogonalLoop=1;jettySize=auto;html=1;entryX=0;entryY=0.5;entryDx=0;entryDy=0;" edge="1" parent="WIyWlLk6GJQsqaUBKTNV-1" source="_vQV7bu7S24XNnnjEnQc-1" target="_vQV7bu7S24XNnnjEnQc-12">
          <mxGeometry relative="1" as="geometry" />
        </mxCell>
        <mxCell id="_vQV7bu7S24XNnnjEnQc-1" value="1D VERSION: 1 affecting feature per class" style="rounded=0;whiteSpace=wrap;html=1;" vertex="1" parent="WIyWlLk6GJQsqaUBKTNV-1">
          <mxGeometry x="230" y="180" width="120" height="60" as="geometry" />
        </mxCell>
        <mxCell id="_vQV7bu7S24XNnnjEnQc-38" style="edgeStyle=orthogonalEdgeStyle;rounded=0;orthogonalLoop=1;jettySize=auto;html=1;entryX=0;entryY=0.5;entryDx=0;entryDy=0;" edge="1" parent="WIyWlLk6GJQsqaUBKTNV-1" source="_vQV7bu7S24XNnnjEnQc-2" target="_vQV7bu7S24XNnnjEnQc-36">
          <mxGeometry relative="1" as="geometry" />
        </mxCell>
        <mxCell id="_vQV7bu7S24XNnnjEnQc-2" value="nD VERSION: several affecting features per class" style="rounded=0;whiteSpace=wrap;html=1;" vertex="1" parent="WIyWlLk6GJQsqaUBKTNV-1">
          <mxGeometry x="230" y="550" width="120" height="60" as="geometry" />
        </mxCell>
        <mxCell id="_vQV7bu7S24XNnnjEnQc-17" style="edgeStyle=orthogonalEdgeStyle;rounded=0;orthogonalLoop=1;jettySize=auto;html=1;entryX=0.5;entryY=0;entryDx=0;entryDy=0;" edge="1" parent="WIyWlLk6GJQsqaUBKTNV-1" source="_vQV7bu7S24XNnnjEnQc-6" target="_vQV7bu7S24XNnnjEnQc-7">
          <mxGeometry relative="1" as="geometry" />
        </mxCell>
        <mxCell id="_vQV7bu7S24XNnnjEnQc-18" style="edgeStyle=orthogonalEdgeStyle;rounded=0;orthogonalLoop=1;jettySize=auto;html=1;entryX=0.5;entryY=0;entryDx=0;entryDy=0;" edge="1" parent="WIyWlLk6GJQsqaUBKTNV-1" source="_vQV7bu7S24XNnnjEnQc-6" target="_vQV7bu7S24XNnnjEnQc-8">
          <mxGeometry relative="1" as="geometry" />
        </mxCell>
        <mxCell id="_vQV7bu7S24XNnnjEnQc-19" style="edgeStyle=orthogonalEdgeStyle;rounded=0;orthogonalLoop=1;jettySize=auto;html=1;entryX=0.5;entryY=0;entryDx=0;entryDy=0;" edge="1" parent="WIyWlLk6GJQsqaUBKTNV-1" source="_vQV7bu7S24XNnnjEnQc-6" target="_vQV7bu7S24XNnnjEnQc-10">
          <mxGeometry relative="1" as="geometry" />
        </mxCell>
        <mxCell id="_vQV7bu7S24XNnnjEnQc-20" style="edgeStyle=orthogonalEdgeStyle;rounded=0;orthogonalLoop=1;jettySize=auto;html=1;entryX=0.5;entryY=0;entryDx=0;entryDy=0;" edge="1" parent="WIyWlLk6GJQsqaUBKTNV-1" source="_vQV7bu7S24XNnnjEnQc-6" target="_vQV7bu7S24XNnnjEnQc-9">
          <mxGeometry relative="1" as="geometry" />
        </mxCell>
        <mxCell id="_vQV7bu7S24XNnnjEnQc-6" value="ML models: statistically classify ecgs then associate them with respective disease classes&amp;nbsp;" style="rounded=0;whiteSpace=wrap;html=1;" vertex="1" parent="WIyWlLk6GJQsqaUBKTNV-1">
          <mxGeometry x="390" y="50" width="230" height="50" as="geometry" />
        </mxCell>
        <mxCell id="_vQV7bu7S24XNnnjEnQc-7" value="SVM" style="rounded=0;whiteSpace=wrap;html=1;fillColor=#f8cecc;strokeColor=#b85450;" vertex="1" parent="WIyWlLk6GJQsqaUBKTNV-1">
          <mxGeometry x="390" y="140" width="50" height="30" as="geometry" />
        </mxCell>
        <mxCell id="_vQV7bu7S24XNnnjEnQc-8" value="kNN" style="rounded=0;whiteSpace=wrap;html=1;fillColor=#fff2cc;strokeColor=#d6b656;" vertex="1" parent="WIyWlLk6GJQsqaUBKTNV-1">
          <mxGeometry x="450" y="140" width="50" height="30" as="geometry" />
        </mxCell>
        <mxCell id="_vQV7bu7S24XNnnjEnQc-9" value="GNB" style="rounded=0;whiteSpace=wrap;html=1;fillColor=#e1d5e7;strokeColor=#9673a6;" vertex="1" parent="WIyWlLk6GJQsqaUBKTNV-1">
          <mxGeometry x="570" y="140" width="50" height="30" as="geometry" />
        </mxCell>
        <mxCell id="_vQV7bu7S24XNnnjEnQc-10" value="RF" style="rounded=0;whiteSpace=wrap;html=1;fillColor=#dae8fc;strokeColor=#6c8ebf;" vertex="1" parent="WIyWlLk6GJQsqaUBKTNV-1">
          <mxGeometry x="510" y="140" width="50" height="30" as="geometry" />
        </mxCell>
        <mxCell id="_vQV7bu7S24XNnnjEnQc-33" style="edgeStyle=orthogonalEdgeStyle;rounded=0;orthogonalLoop=1;jettySize=auto;html=1;entryX=0.5;entryY=0;entryDx=0;entryDy=0;" edge="1" parent="WIyWlLk6GJQsqaUBKTNV-1" source="_vQV7bu7S24XNnnjEnQc-12" target="_vQV7bu7S24XNnnjEnQc-29">
          <mxGeometry relative="1" as="geometry" />
        </mxCell>
        <mxCell id="_vQV7bu7S24XNnnjEnQc-34" style="edgeStyle=orthogonalEdgeStyle;rounded=0;orthogonalLoop=1;jettySize=auto;html=1;" edge="1" parent="WIyWlLk6GJQsqaUBKTNV-1" source="_vQV7bu7S24XNnnjEnQc-12" target="_vQV7bu7S24XNnnjEnQc-30">
          <mxGeometry relative="1" as="geometry" />
        </mxCell>
        <mxCell id="_vQV7bu7S24XNnnjEnQc-35" style="edgeStyle=orthogonalEdgeStyle;rounded=0;orthogonalLoop=1;jettySize=auto;html=1;" edge="1" parent="WIyWlLk6GJQsqaUBKTNV-1" source="_vQV7bu7S24XNnnjEnQc-12" target="_vQV7bu7S24XNnnjEnQc-31">
          <mxGeometry relative="1" as="geometry" />
        </mxCell>
        <mxCell id="_vQV7bu7S24XNnnjEnQc-12" value="DNN models: directly classify ecg into its respective class, so diagnosing the disease nonlinearly" style="rounded=0;whiteSpace=wrap;html=1;" vertex="1" parent="WIyWlLk6GJQsqaUBKTNV-1">
          <mxGeometry x="390" y="290" width="230" height="50" as="geometry" />
        </mxCell>
        <mxCell id="_vQV7bu7S24XNnnjEnQc-21" value="V1" style="rounded=0;whiteSpace=wrap;html=1;fillColor=#f8cecc;strokeColor=#b85450;" vertex="1" parent="WIyWlLk6GJQsqaUBKTNV-1">
          <mxGeometry x="390" y="180" width="50" height="30" as="geometry" />
        </mxCell>
        <mxCell id="_vQV7bu7S24XNnnjEnQc-22" value="V2" style="rounded=0;whiteSpace=wrap;html=1;fillColor=#f8cecc;strokeColor=#b85450;" vertex="1" parent="WIyWlLk6GJQsqaUBKTNV-1">
          <mxGeometry x="390" y="220" width="50" height="30" as="geometry" />
        </mxCell>
        <mxCell id="_vQV7bu7S24XNnnjEnQc-23" value="V1" style="rounded=0;whiteSpace=wrap;html=1;fillColor=#fff2cc;strokeColor=#d6b656;" vertex="1" parent="WIyWlLk6GJQsqaUBKTNV-1">
          <mxGeometry x="450" y="180" width="50" height="30" as="geometry" />
        </mxCell>
        <mxCell id="_vQV7bu7S24XNnnjEnQc-24" value="V2" style="rounded=0;whiteSpace=wrap;html=1;fillColor=#fff2cc;strokeColor=#d6b656;" vertex="1" parent="WIyWlLk6GJQsqaUBKTNV-1">
          <mxGeometry x="450" y="220" width="50" height="30" as="geometry" />
        </mxCell>
        <mxCell id="_vQV7bu7S24XNnnjEnQc-25" value="V1" style="rounded=0;whiteSpace=wrap;html=1;fillColor=#dae8fc;strokeColor=#6c8ebf;" vertex="1" parent="WIyWlLk6GJQsqaUBKTNV-1">
          <mxGeometry x="510" y="180" width="50" height="30" as="geometry" />
        </mxCell>
        <mxCell id="_vQV7bu7S24XNnnjEnQc-26" value="V2" style="rounded=0;whiteSpace=wrap;html=1;fillColor=#dae8fc;strokeColor=#6c8ebf;" vertex="1" parent="WIyWlLk6GJQsqaUBKTNV-1">
          <mxGeometry x="510" y="220" width="50" height="30" as="geometry" />
        </mxCell>
        <mxCell id="_vQV7bu7S24XNnnjEnQc-27" value="V1" style="rounded=0;whiteSpace=wrap;html=1;fillColor=#e1d5e7;strokeColor=#9673a6;" vertex="1" parent="WIyWlLk6GJQsqaUBKTNV-1">
          <mxGeometry x="570" y="180" width="50" height="30" as="geometry" />
        </mxCell>
        <mxCell id="_vQV7bu7S24XNnnjEnQc-28" value="V2" style="rounded=0;whiteSpace=wrap;html=1;fillColor=#e1d5e7;strokeColor=#9673a6;" vertex="1" parent="WIyWlLk6GJQsqaUBKTNV-1">
          <mxGeometry x="570" y="220" width="50" height="30" as="geometry" />
        </mxCell>
        <mxCell id="_vQV7bu7S24XNnnjEnQc-29" value="1D multiclass CNN" style="rounded=0;whiteSpace=wrap;html=1;fillColor=#f8cecc;strokeColor=#b85450;" vertex="1" parent="WIyWlLk6GJQsqaUBKTNV-1">
          <mxGeometry x="380" y="390" width="80" height="70" as="geometry" />
        </mxCell>
        <mxCell id="_vQV7bu7S24XNnnjEnQc-30" value="marine predators optimised CNN model" style="rounded=0;whiteSpace=wrap;html=1;fillColor=#fff2cc;strokeColor=#d6b656;" vertex="1" parent="WIyWlLk6GJQsqaUBKTNV-1">
          <mxGeometry x="480" y="390" width="80" height="70" as="geometry" />
        </mxCell>
        <mxCell id="_vQV7bu7S24XNnnjEnQc-31" value="UNet vision ecg model" style="rounded=0;whiteSpace=wrap;html=1;fillColor=#dae8fc;strokeColor=#6c8ebf;" vertex="1" parent="WIyWlLk6GJQsqaUBKTNV-1">
          <mxGeometry x="580" y="390" width="80" height="70" as="geometry" />
        </mxCell>
        <mxCell id="_vQV7bu7S24XNnnjEnQc-39" style="edgeStyle=orthogonalEdgeStyle;rounded=0;orthogonalLoop=1;jettySize=auto;html=1;entryX=0;entryY=0.5;entryDx=0;entryDy=0;" edge="1" parent="WIyWlLk6GJQsqaUBKTNV-1" source="_vQV7bu7S24XNnnjEnQc-36" target="_vQV7bu7S24XNnnjEnQc-37">
          <mxGeometry relative="1" as="geometry" />
        </mxCell>
        <mxCell id="_vQV7bu7S24XNnnjEnQc-36" value="Preprocessing and labelling pipeline: using python libraries" style="rounded=0;whiteSpace=wrap;html=1;" vertex="1" parent="WIyWlLk6GJQsqaUBKTNV-1">
          <mxGeometry x="390" y="555" width="230" height="50" as="geometry" />
        </mxCell>
        <mxCell id="_vQV7bu7S24XNnnjEnQc-47" style="edgeStyle=orthogonalEdgeStyle;rounded=0;orthogonalLoop=1;jettySize=auto;html=1;entryX=1;entryY=0.5;entryDx=0;entryDy=0;" edge="1" parent="WIyWlLk6GJQsqaUBKTNV-1" source="_vQV7bu7S24XNnnjEnQc-37" target="_vQV7bu7S24XNnnjEnQc-43">
          <mxGeometry relative="1" as="geometry">
            <Array as="points">
              <mxPoint x="810" y="580" />
              <mxPoint x="810" y="655" />
            </Array>
          </mxGeometry>
        </mxCell>
        <mxCell id="_vQV7bu7S24XNnnjEnQc-37" value="Labelled classes and waveforms" style="rounded=0;whiteSpace=wrap;html=1;fontStyle=5;strokeWidth=2;" vertex="1" parent="WIyWlLk6GJQsqaUBKTNV-1">
          <mxGeometry x="650" y="560" width="140" height="40" as="geometry" />
        </mxCell>
        <mxCell id="_vQV7bu7S24XNnnjEnQc-40" value="AlexNet CNN" style="rounded=0;whiteSpace=wrap;html=1;fillColor=#fff2cc;strokeColor=#d6b656;" vertex="1" parent="WIyWlLk6GJQsqaUBKTNV-1">
          <mxGeometry x="380" y="730" width="80" height="70" as="geometry" />
        </mxCell>
        <mxCell id="_vQV7bu7S24XNnnjEnQc-51" value="1D ResNet" style="rounded=0;whiteSpace=wrap;html=1;fillColor=#f8cecc;strokeColor=#b85450;" vertex="1" parent="WIyWlLk6GJQsqaUBKTNV-1">
          <mxGeometry x="280" y="730" width="80" height="70" as="geometry" />
        </mxCell>
        <mxCell id="_vQV7bu7S24XNnnjEnQc-41" value="marine predators optimised CNN model" style="rounded=0;whiteSpace=wrap;html=1;fillColor=#dae8fc;strokeColor=#6c8ebf;" vertex="1" parent="WIyWlLk6GJQsqaUBKTNV-1">
          <mxGeometry x="480" y="730" width="80" height="70" as="geometry" />
        </mxCell>
        <mxCell id="_vQV7bu7S24XNnnjEnQc-42" value="UNet vision ecg model" style="rounded=0;whiteSpace=wrap;html=1;fillColor=#e1d5e7;strokeColor=#9673a6;" vertex="1" parent="WIyWlLk6GJQsqaUBKTNV-1">
          <mxGeometry x="580" y="730" width="80" height="70" as="geometry" />
        </mxCell>
        <mxCell id="_vQV7bu7S24XNnnjEnQc-48" style="edgeStyle=orthogonalEdgeStyle;rounded=0;orthogonalLoop=1;jettySize=auto;html=1;entryX=0.5;entryY=0;entryDx=0;entryDy=0;" edge="1" parent="WIyWlLk6GJQsqaUBKTNV-1" source="_vQV7bu7S24XNnnjEnQc-43" target="_vQV7bu7S24XNnnjEnQc-40">
          <mxGeometry relative="1" as="geometry" />
        </mxCell>
        <mxCell id="_vQV7bu7S24XNnnjEnQc-49" style="edgeStyle=orthogonalEdgeStyle;rounded=0;orthogonalLoop=1;jettySize=auto;html=1;entryX=0.5;entryY=0;entryDx=0;entryDy=0;" edge="1" parent="WIyWlLk6GJQsqaUBKTNV-1" source="_vQV7bu7S24XNnnjEnQc-43" target="_vQV7bu7S24XNnnjEnQc-41">
          <mxGeometry relative="1" as="geometry" />
        </mxCell>
        <mxCell id="_vQV7bu7S24XNnnjEnQc-50" style="edgeStyle=orthogonalEdgeStyle;rounded=0;orthogonalLoop=1;jettySize=auto;html=1;" edge="1" parent="WIyWlLk6GJQsqaUBKTNV-1" source="_vQV7bu7S24XNnnjEnQc-43" target="_vQV7bu7S24XNnnjEnQc-42">
          <mxGeometry relative="1" as="geometry" />
        </mxCell>
        <mxCell id="_vQV7bu7S24XNnnjEnQc-54" style="edgeStyle=orthogonalEdgeStyle;rounded=0;orthogonalLoop=1;jettySize=auto;html=1;entryX=0.5;entryY=0;entryDx=0;entryDy=0;" edge="1" parent="WIyWlLk6GJQsqaUBKTNV-1">
          <mxGeometry relative="1" as="geometry">
            <mxPoint x="505" y="685" as="sourcePoint" />
            <mxPoint x="320" y="731" as="targetPoint" />
            <Array as="points">
              <mxPoint x="505" y="705" />
              <mxPoint x="320" y="705" />
            </Array>
          </mxGeometry>
        </mxCell>
        <mxCell id="_vQV7bu7S24XNnnjEnQc-43" value="DNN models: directly classify ecg into its respective class, so diagnosing the disease nonlinearly" style="rounded=0;whiteSpace=wrap;html=1;" vertex="1" parent="WIyWlLk6GJQsqaUBKTNV-1">
          <mxGeometry x="390" y="630" width="230" height="50" as="geometry" />
        </mxCell>
      </root>
    </mxGraphModel>
  </diagram>
</mxfile>
